<svg width="128" height="128" viewBox="0 0 128 128" xmlns="http://www.w3.org/2000/svg">
  <defs>
    <linearGradient id="bg" x1="0" y1="0" x2="0" y2="1">
      <stop offset="0%" stop-color="#1a1d21"/>
      <stop offset="100%" stop-color="#0f1114"/>
    </linearGradient>
    <filter id="shadow" x="-10%" y="-10%" width="120%" height="120%">
      <feDropShadow dx="0" dy="6" stdDeviation="6" flood-color="#000" flood-opacity="0.35"/>
    </filter>
  </defs>
  <rect x="8" y="8" width="112" height="112" rx="26" fill="url(#bg)" filter="url(#shadow)"/>
  <path d="M38 64.5c3.4-0.2 7.6-3.1 10.4-5.5 2.6-2.2 4.5-4.7 6-7.7 2.3-4.8 3.7-13.7 8.8-14.3 5.3-0.6 6.6 7.6 7.6 12 0.7 3 1.5 6.1 2.8 8.9 1.4 3.2 3.7 5.5 6 8 1.9 2 4.4 4.9 3 7.6-1.5 2.9-5.6 2.3-8.5 1.9-3.2-0.5-6.3-1.8-9.3-2.7-4.5-1.3-8.2-1.2-12.8-0.2-4.4 1-9 2.9-13.4 1.3-2.6-0.9-4.1-3.2-3.5-6 0.5-2.6 2.5-3.8 4.9-4.3z" fill="#8aa3da"/>
  <rect x="80" y="79" width="20" height="6" rx="3" fill="#8aa3da"/>
</svg>
